<svg width="18" height="21" viewBox="0 0 18 21" fill="none" xmlns="http://www.w3.org/2000/svg">
<path d="M15.9267 0.300293C16.1294 0.300293 16.3233 0.339949 16.5083 0.419262C16.7991 0.533825 17.0305 0.714481 17.2023 0.961232C17.3741 1.20798 17.4601 1.48117 17.4601 1.7808V18.8198C17.4601 19.1194 17.3741 19.3926 17.2023 19.6394C17.0305 19.8861 16.7991 20.0668 16.5083 20.1813C16.3409 20.2518 16.147 20.2871 15.9267 20.2871C15.5037 20.2871 15.138 20.1461 14.8295 19.8641L9.00005 14.2593L3.17057 19.8641C2.85332 20.1549 2.4876 20.3003 2.07342 20.3003C1.87073 20.3003 1.67685 20.2606 1.49179 20.1813C1.20098 20.0668 0.969649 19.8861 0.797805 19.6394C0.625961 19.3926 0.540039 19.1194 0.540039 18.8198V1.7808C0.540039 1.48117 0.625961 1.20798 0.797805 0.961232C0.969649 0.714481 1.20098 0.533825 1.49179 0.419262C1.67685 0.339949 1.87073 0.300293 2.07342 0.300293H15.9267Z" fill="white"/>
</svg>
