<svg width="20" height="21" viewBox="0 0 20 21" fill="none" xmlns="http://www.w3.org/2000/svg">
<path fill-rule="evenodd" clip-rule="evenodd" d="M16.9556 0.300293H3.04444C1.36304 0.300293 0 1.66334 0 3.34474V17.2558C0 18.9372 1.36304 20.3003 3.04444 20.3003H16.9556C17.763 20.3003 18.5374 19.9795 19.1083 19.4086C19.6792 18.8377 20 18.0633 20 17.2558V3.34474C20 2.5373 19.6792 1.76293 19.1083 1.19199C18.5374 0.621046 17.763 0.300293 16.9556 0.300293ZM4 9.30029H2V7.30029H4V9.30029ZM4 11.3003H2V13.3003H4V11.3003ZM18 9.30029H16V7.30029H18V9.30029ZM18 11.3003H16V13.3003H18V11.3003ZM18 3.04029V4.30029H16V2.30029H17.26C17.4563 2.30029 17.6445 2.37826 17.7833 2.51703C17.922 2.65581 18 2.84403 18 3.04029ZM4 2.30029H2.74C2.54374 2.30029 2.35552 2.37826 2.21674 2.51703C2.07796 2.65581 2 2.84403 2 3.04029V4.30029H4V2.30029ZM2 17.5603V16.3003H4V18.3003H2.74C2.54374 18.3003 2.35552 18.2223 2.21674 18.0836C2.07796 17.9448 2 17.7566 2 17.5603ZM17.26 18.3003C17.6687 18.3003 18 17.969 18 17.5603V16.3003H16V18.3003H17.26Z" fill="white"/>
</svg>
