<svg width="20" height="21" viewBox="0 0 20 21" fill="none" xmlns="http://www.w3.org/2000/svg">
<path fill-rule="evenodd" clip-rule="evenodd" d="M1 0.300018H8C8.6 0.300018 9 0.700018 9 1.30002V8.30002C9 8.90002 8.6 9.30002 8 9.30002H1C0.4 9.30002 0 8.90002 0 8.30002V1.30002C0 0.700018 0.4 0.300018 1 0.300018ZM1 11.3H8C8.6 11.3 9 11.7 9 12.3V19.3C9 19.9 8.6 20.3 8 20.3H1C0.4 20.3 0 19.9 0 19.3V12.3C0 11.7 0.4 11.3 1 11.3ZM19 0.300018H12C11.4 0.300018 11 0.700018 11 1.30002V8.30002C11 8.90002 11.4 9.30002 12 9.30002H19C19.6 9.30002 20 8.90002 20 8.30002V1.30002C20 0.700018 19.6 0.300018 19 0.300018ZM12 11.3H19C19.6 11.3 20 11.7 20 12.3V19.3C20 19.9 19.6 20.3 19 20.3H12C11.4 20.3 11 19.9 11 19.3V12.3C11 11.7 11.4 11.3 12 11.3Z" fill="white"/>
</svg>
